<svg width="691" height="483" viewBox="0 0 691 483" fill="none" xmlns="http://www.w3.org/2000/svg">
<path d="M577.673 143.724C537.8 128.241 504.48 99.5137 483.317 62.3728C473.905 46.0564 460.909 32.0858 445.31 21.513C429.711 10.9402 411.914 4.04078 393.259 1.33409C374.605 -1.3726 355.578 0.184036 337.613 5.88679C319.648 11.5895 303.211 21.2898 289.542 34.2572C257.897 64.462 216.224 81.3515 172.712 85.3285C164.519 86.0925 156.382 87.3703 148.349 89.1544C122.869 94.7977 98.8273 105.628 77.7249 120.97C56.6226 136.311 38.9126 155.834 25.7008 178.319C12.489 200.805 4.05913 225.77 0.937452 251.655C-2.18422 277.541 0.0693761 303.792 7.55753 328.769C15.0457 353.746 27.6076 376.912 44.4589 396.822C61.3102 416.731 82.0891 432.956 105.498 444.484C128.907 456.011 154.444 462.594 180.513 463.82C206.583 465.047 232.625 460.891 257.015 451.612C314.258 430.066 378.077 432.482 431.843 461.68C452.98 473.234 476.272 480.316 500.268 482.484C524.263 484.652 548.449 481.861 571.317 474.283C594.186 466.706 615.248 454.505 633.191 438.441C651.134 422.377 665.573 402.793 675.609 380.911C685.646 359.028 691.064 335.315 691.527 311.25C691.989 287.184 687.487 263.28 678.299 241.029C669.111 218.778 655.435 198.655 638.123 181.914C620.81 165.173 600.233 152.173 577.673 143.724Z" fill="#B6FFF6"/>
</svg>
