<svg width="39" height="39" viewBox="0 0 39 39" fill="none" xmlns="http://www.w3.org/2000/svg">
<path opacity="0.4" d="M19.5 37.75C29.5792 37.75 37.75 29.5792 37.75 19.5C37.75 9.4208 29.5792 1.25 19.5 1.25C9.4208 1.25 1.25 9.4208 1.25 19.5C1.25 29.5792 9.4208 37.75 19.5 37.75Z" stroke="white" stroke-width="1.5"/>
<path d="M21.0932 15.0208H22.7016C22.8495 15.0208 22.9696 14.9076 22.9696 14.7682V13.2526C22.9696 13.1132 22.8495 13 22.7016 13H21.0932C19.4677 13 18.1445 14.2463 18.1445 15.7786V17.5468H16.2681C16.1201 17.5468 16 17.6599 16 17.7994V19.3149C16 19.4544 16.1201 19.5675 16.2681 19.5675H18.1445V24.8721C18.1445 25.0115 18.2646 25.1247 18.4126 25.1247H20.0209C20.1689 25.1247 20.289 25.0115 20.289 24.8721V19.5675H22.1655C22.2807 19.5675 22.3831 19.4978 22.4201 19.3948L22.9562 17.8792C22.9836 17.8024 22.9696 17.7175 22.9192 17.6513C22.8683 17.5857 22.7879 17.5468 22.7016 17.5468H20.289V15.7786C20.289 15.3608 20.6498 15.0208 21.0932 15.0208Z" fill="white"/>
</svg>
