<svg width="141" height="120" viewBox="0 0 141 120" fill="none" xmlns="http://www.w3.org/2000/svg">
<g clip-path="url(#clip0_188_2255)">
<path d="M126.098 47.5917L85.3085 33.0435V59.919L126.098 47.5917Z" fill="url(#paint0_linear_188_2255)"/>
<path d="M83.0319 60.6088L85.3085 59.919V33.0435L42.2447 46.0578L83.0319 60.6088Z" fill="url(#paint1_linear_188_2255)"/>
<path d="M126.098 47.5917L125.646 47.7302L85.3112 33.3417V33.0435L126.098 47.5917Z" fill="#FF9D66"/>
<path d="M85.3112 33.3417V33.0435L42.2447 46.0578L42.6702 46.2149L85.3112 33.3417Z" fill="#FF9D66"/>
<path d="M85.2846 53.1492L92.3298 50.835L92.4309 61.0904L85.383 63.4019L85.2846 53.1492Z" fill="url(#paint2_linear_188_2255)"/>
<path d="M77.3378 51.1653L84.383 48.8511L92.3298 50.8351L85.2846 53.1492L77.3378 51.1653Z" fill="url(#paint3_linear_188_2255)"/>
<path d="M85.2846 53.149L77.3378 51.165L77.4388 61.4178L85.383 63.4018L85.2846 53.149Z" fill="url(#paint4_linear_188_2255)"/>
<path d="M78.3484 12.2024C77.7304 12.4106 77.1682 12.7577 76.7048 13.217C75.5 14.3834 74.7021 16.6097 74.3298 19.8374L74.1223 21.6269L81.1702 19.3127L81.375 17.5258C81.7473 14.2982 82.5452 12.0719 83.75 10.9055C84.2133 10.4454 84.7755 10.0975 85.3936 9.88818L78.3484 12.2024Z" fill="url(#paint5_linear_188_2255)"/>
<path d="M98.9654 8.05595C96.2074 4.15723 92.5319 1.61401 88.0452 0.492866C85.3989 -0.167572 83.0505 -0.164909 81.0239 0.492866L73.9787 2.80706C76.0053 2.1413 78.3537 2.13863 81 2.80706C85.4867 3.92555 89.1595 6.47143 91.9202 10.3675C94.7181 14.3221 96.1596 18.6842 96.2048 23.3366C96.2287 26.0316 95.7553 28.4337 94.7952 30.4736C93.8617 32.4495 92.1356 34.5667 89.4947 36.9474C87.5292 38.7237 86.75 39.6611 86.4441 40.1431C86.0112 40.845 85.7101 41.6203 85.5558 42.4307C85.4122 43.0991 85.242 44.5611 85.226 47.6529V49.5464L92.2713 47.2348V45.3387C92.2872 42.2389 92.4574 40.7876 92.601 40.1165C92.7553 39.3061 93.0564 38.5308 93.4893 37.8289C93.7952 37.3576 94.5744 36.4202 96.5399 34.6333C99.1755 32.2525 100.907 30.1353 101.84 28.1567C102.801 26.1168 103.277 23.7174 103.25 21.0224C103.205 16.3727 101.763 12.0079 98.9654 8.05595Z" fill="url(#paint6_linear_188_2255)"/>
<path d="M91.9202 10.3675C89.1596 6.47145 85.4867 3.92557 81 2.80708C76.7447 1.74186 73.2739 2.39697 70.6649 4.74312C68.0558 7.08928 66.4894 11.0199 66.0266 16.4206L65.8617 18.3007L74.1223 21.6269L74.3298 19.8373C74.7021 16.6097 75.5 14.3834 76.7048 13.217C77.9096 12.0506 79.3511 11.7336 81.1782 12.1917C83.0718 12.6631 84.6356 13.8375 85.9335 15.7762C87.2314 17.7149 87.8697 19.6349 87.8883 21.7041C87.9232 22.6888 87.7255 23.6679 87.3112 24.5616C87.008 25.1847 86.2154 26.3165 84.1702 28.1541C82.3245 29.8131 81.0718 31.0834 80.3351 32.0528C79.3429 33.3456 78.5858 34.8032 78.0984 36.3589C77.4787 38.3189 77.1782 40.7583 77.2048 43.6078C77.2048 44.0818 77.2261 44.7769 77.2553 45.6716L77.3138 47.5651L85.2207 49.5331V47.6396C85.2367 44.5372 85.4069 43.0858 85.5505 42.4174C85.7048 41.607 86.0059 40.8317 86.4388 40.1298C86.7447 39.6558 87.5239 38.7184 89.4894 36.9342C92.1223 34.5534 93.8564 32.4362 94.7899 30.4603C95.75 28.4204 96.2234 26.0183 96.1995 23.3233C96.1596 18.6842 94.7181 14.3221 91.9202 10.3675Z" fill="url(#paint7_linear_188_2255)"/>
<path d="M111.928 24.9212L112.878 27.1874L109.229 24.7587L108.279 22.4951L111.928 24.9212Z" fill="url(#paint8_linear_188_2255)"/>
<path d="M121.165 24.5005C120.76 23.5488 120.016 22.7819 119.077 22.3488C118.498 22.0488 117.865 21.8677 117.215 21.8161C116.708 21.7825 116.198 21.8338 115.707 21.9679C114.556 22.2742 113.402 23.129 112.271 24.5112L111.936 24.9186L112.886 27.1849L113.221 26.7774C114.351 25.3953 115.505 24.5378 116.657 24.2315C117.148 24.0974 117.657 24.0461 118.165 24.0797C118.814 24.133 119.447 24.314 120.027 24.6124C120.965 25.0435 121.71 25.8098 122.114 26.7614L121.165 24.5005Z" fill="url(#paint9_linear_188_2255)"/>
<path d="M111.588 38.7529L112.537 41.0192L108.809 39.1417L107.859 36.8755L111.588 38.7529Z" fill="url(#paint10_linear_188_2255)"/>
<path d="M126.609 26.2424C126.552 26.0773 126.491 25.9148 126.426 25.755L125.476 23.4888C125.543 23.6512 125.604 23.8137 125.66 23.9788C126.007 24.9525 126.13 25.992 126.021 27.0201C125.912 28.0482 125.573 29.0385 125.029 29.9174C124.398 30.9949 123.511 31.8996 122.447 32.5512C121.383 33.1983 119.803 33.7735 117.585 34.3088C116.623 34.5107 115.679 34.7931 114.763 35.153C114.289 35.3774 113.857 35.6829 113.487 36.0557C112.87 36.7448 112.328 37.4963 111.867 38.298L111.588 38.7507L112.537 41.017L112.816 40.5643C113.277 39.7613 113.819 39.0089 114.436 38.3193C114.807 37.9474 115.239 37.6421 115.713 37.4166C116.628 37.0571 117.572 36.7747 118.535 36.5724C120.753 36.0398 122.343 35.4619 123.396 34.8121C124.459 34.1608 125.345 33.2571 125.976 32.181C126.521 31.3024 126.86 30.3122 126.97 29.2841C127.079 28.2559 126.956 27.2162 126.609 26.2424Z" fill="url(#paint11_linear_188_2255)"/>
<path d="M116.891 17.8695C118.315 17.9891 119.701 18.3919 120.968 19.0545C123.404 20.2742 124.973 21.9333 125.66 23.9679C126.007 24.9416 126.13 25.9811 126.021 27.0092C125.912 28.0373 125.573 29.0276 125.029 29.9065C124.398 30.984 123.511 31.8888 122.447 32.5403C121.383 33.1874 119.803 33.7626 117.585 34.2979C116.622 34.5033 115.678 34.7892 114.763 35.1527C114.289 35.3772 113.857 35.6827 113.487 36.0555C112.871 36.7446 112.328 37.4961 111.867 38.2978L111.588 38.7505L107.864 36.8864L108.13 36.4257C108.346 36.0422 108.513 35.7466 108.63 35.5495C109.236 34.4837 110.025 33.5342 110.963 32.7453C111.685 32.1692 112.493 31.7092 113.356 31.3818C114.452 30.9915 115.571 30.6713 116.707 30.4231C118.162 30.0743 119.178 29.7307 119.734 29.3979C120.253 29.0915 120.684 28.6569 120.987 28.1356C121.273 27.663 121.452 27.1337 121.513 26.5845C121.574 26.0354 121.514 25.4795 121.338 24.9559C121.17 24.3878 120.883 23.8623 120.495 23.4149C120.107 22.9675 119.628 22.6084 119.09 22.3621C118.512 22.0621 117.879 21.881 117.229 21.8294C116.721 21.7958 116.212 21.8471 115.721 21.9812C114.569 22.2875 113.415 23.1423 112.285 24.5245L111.949 24.9319L108.301 22.5059L108.636 22.0665C110.261 19.936 112.17 18.6045 114.309 18.0932C115.153 17.8889 116.024 17.8135 116.891 17.8695Z" fill="url(#paint12_linear_188_2255)"/>
<path d="M110.263 41.0112L111.213 43.2775L109.045 46.9339L108.098 44.6703L110.263 41.0112Z" fill="url(#paint13_linear_188_2255)"/>
<path d="M108.098 44.6702L109.045 46.9338L105.314 45.0563L104.364 42.79L108.098 44.6702Z" fill="url(#paint14_linear_188_2255)"/>
<path d="M106.532 39.1367L110.263 41.0115L108.098 44.6706L104.364 42.7904L106.532 39.1367Z" fill="url(#paint15_linear_188_2255)"/>
<path d="M65.6037 27.7543C65.4331 27.3565 65.1782 27.0005 64.8568 26.7108C64.5354 26.4212 64.1551 26.2048 63.742 26.0766C63.4124 25.9568 63.0678 25.8833 62.7181 25.8582C62.0801 25.8232 61.4428 25.9372 60.8564 26.1911C59.9685 26.5172 59.2363 27.1668 58.8059 28.01C58.391 28.8355 58.3325 29.9247 58.6356 31.2429L58.7234 31.6317L59.4814 33.44L59.3936 33.0511C59.0904 31.7356 59.1516 30.6544 59.5638 29.8209C59.9941 28.977 60.7263 28.3266 61.6144 27.9993C62.2008 27.7454 62.8381 27.6315 63.4761 27.6664C63.8256 27.6928 64.1701 27.7662 64.5 27.8848C64.9152 28.0118 65.298 28.2276 65.6217 28.5173C65.9454 28.807 66.2025 29.1636 66.375 29.5625L65.6037 27.7543Z" fill="url(#paint16_linear_188_2255)"/>
<path d="M58.6995 31.6318L59.4575 33.4427L55.9229 34.4627L55.1649 32.6518L58.6995 31.6318Z" fill="url(#paint17_linear_188_2255)"/>
<path d="M69.7074 28.0314L68.9495 26.2231C69.3135 27.096 69.4321 28.0519 69.2925 28.9874C69.1516 29.9168 68.6782 31.1312 67.8457 32.6944C67.4673 33.3547 67.1478 34.0471 66.8909 34.7636C66.7841 35.1489 66.7534 35.5515 66.8005 35.9486C66.9213 36.6407 67.1221 37.3163 67.3989 37.9619L67.5532 38.348L68.3112 40.1563L68.1649 39.7781C67.8877 39.1327 67.6869 38.457 67.5665 37.7648C67.5195 37.3677 67.5502 36.9652 67.6569 36.5798C67.914 35.8642 68.2335 35.1727 68.6117 34.5132C69.4441 32.95 69.9175 31.7357 70.0585 30.8063C70.1971 29.8666 70.0757 28.9068 69.7074 28.0314Z" fill="url(#paint18_linear_188_2255)"/>
<path d="M63.8298 22.7452C64.3723 22.7823 64.9083 22.886 65.4255 23.0541C67.1436 23.6107 68.3351 24.6786 68.9681 26.2231C69.3321 27.096 69.4508 28.0519 69.3112 28.9874C69.1702 29.9168 68.6968 31.1312 67.8644 32.6944C67.486 33.3547 67.1665 34.0471 66.9096 34.7636C66.8027 35.1489 66.772 35.5515 66.8192 35.9486C66.9399 36.6407 67.1408 37.3163 67.4176 37.9619L67.5532 38.348L64.3431 39.6796L64.1755 39.3094C64.0399 39.0032 63.9388 38.7768 63.8697 38.6037C63.4992 37.7499 63.3003 36.8314 63.2846 35.9007C63.2965 35.1966 63.4278 34.4996 63.6729 33.8395C64.0047 33.0031 64.3921 32.19 64.8324 31.4055C65.383 30.3775 65.7021 29.6132 65.7793 29.1285C65.8536 28.6788 65.7992 28.2171 65.6223 27.797C65.4522 27.3921 65.195 27.0297 64.8691 26.7356C64.5432 26.4415 64.1565 26.2229 63.7367 26.0953C63.4071 25.9755 63.0625 25.902 62.7128 25.8769C62.0748 25.842 61.4375 25.9559 60.8511 26.2098C59.9632 26.536 59.2309 27.1855 58.8005 28.0287C58.3856 28.8542 58.3271 29.9434 58.6303 31.2617L58.7181 31.6505L55.1835 32.6731L55.0532 32.2496C54.5213 30.287 54.6782 28.5214 55.484 27.0194C56.2899 25.5174 57.7048 24.335 59.6862 23.5201C60.9885 22.9429 62.4072 22.6775 63.8298 22.7452Z" fill="url(#paint19_linear_188_2255)"/>
<path d="M67.5452 38.3398L68.3032 40.1481L65.0931 41.4769L64.3351 39.6687L67.5452 38.3398Z" fill="url(#paint20_linear_188_2255)"/>
<path d="M68.4681 40.4653L69.2261 42.2735L70.4601 45.2748L69.7021 43.4666L68.4681 40.4653Z" fill="url(#paint21_linear_188_2255)"/>
<path d="M69.7021 43.4668L70.4601 45.275L67.2394 46.6039L66.4814 44.7957L69.7021 43.4668Z" fill="url(#paint22_linear_188_2255)"/>
<path d="M68.4681 40.4653L69.7021 43.4666L66.4814 44.7955L65.25 41.7915L68.4681 40.4653Z" fill="url(#paint23_linear_188_2255)"/>
<path d="M42.2447 46.0576L83.0319 60.6086V110.685L43.3644 91.3136L42.2447 46.0576Z" fill="url(#paint24_linear_188_2255)"/>
<path style="mix-blend-mode:multiply" opacity="0.5" d="M83.0319 110.685L43.3644 91.3138L43.2899 88.3125L83.0319 107.766V110.685Z" fill="url(#paint25_linear_188_2255)"/>
<path style="mix-blend-mode:multiply" opacity="0.4" d="M83.0319 60.6087V110.685L79.8192 109.119V59.4609L83.0319 60.6087Z" fill="url(#paint26_linear_188_2255)"/>
<path d="M83.0319 60.6088V110.685L123.968 93.0342L126.098 47.5918L83.0319 60.6088Z" fill="url(#paint27_linear_188_2255)"/>
<path style="mix-blend-mode:multiply" opacity="0.2" d="M83.0319 60.6086V110.685L86.4096 109.231V59.5859L83.0319 60.6086Z" fill="url(#paint28_linear_188_2255)"/>
<path style="mix-blend-mode:multiply" opacity="0.5" d="M83.0319 110.685L123.968 93.0343L124.048 91.314L83.0319 108.741V110.685Z" fill="url(#paint29_linear_188_2255)"/>
<path style="mix-blend-mode:screen" opacity="0.8" d="M126.098 47.5918L123.968 93.0342L122.511 93.6627L124.303 48.1351L126.098 47.5918Z" fill="url(#paint30_linear_188_2255)"/>
<path d="M42.2447 46.0577L83.0319 60.6087V60.345L42.5825 45.9565L42.2447 46.0577Z" fill="#FF9D66"/>
<path d="M83.0319 60.3449V60.6085L126.098 47.5915L125.676 47.4424L83.0319 60.3449Z" fill="#FF9D66"/>
<path d="M118.202 108.794L114.285 109.553L112.146 103.052L116.064 102.293L118.202 108.794Z" fill="url(#paint31_linear_188_2255)"/>
<path d="M116.064 102.293L112.146 103.052L116.817 100.946L120.734 100.187L116.064 102.293Z" fill="url(#paint32_linear_188_2255)"/>
<path d="M120.734 100.187L122.875 106.688L118.202 108.794L116.064 102.293L120.734 100.187Z" fill="url(#paint33_linear_188_2255)"/>
<path d="M113.157 86.0166C112.854 87.3974 112.729 88.8115 112.785 90.2242C112.899 92.1337 113.27 94.0191 113.886 95.8299C114.114 96.5969 114.399 97.4144 114.739 98.3012L110.822 99.0576C109.192 94.81 108.122 90.3707 109.473 85.8301C110.229 82.6824 112.059 79.6305 111.91 76.3177C111.742 73.7052 109.819 70.7865 107.269 70.0622C106.633 69.8804 105.965 69.8449 105.314 69.9583L109.093 69.2286L109.247 69.1967C109.867 69.0996 110.5 69.1277 111.109 69.2792H111.136C111.613 69.4219 112.068 69.6289 112.489 69.8944C113.929 70.7965 114.992 72.1929 115.479 73.8224C115.784 74.7285 115.909 75.6858 115.846 76.6399C115.774 77.6306 115.378 79.1592 114.657 81.1671C114.064 82.7532 113.563 84.3724 113.157 86.0166Z" fill="url(#paint34_linear_188_2255)"/>
<path d="M108.699 62.9307C107.836 63.101 106.996 63.3737 106.197 63.7429C104.814 64.3392 103.571 65.2199 102.549 66.3278C101.527 67.4357 100.75 68.7461 100.266 70.1742C99.2021 73.1408 99.1729 76.7759 100.144 80.9649L100.346 81.8277L96.4282 82.584C93.6702 71.9904 97.0745 63.9906 108.699 62.9307Z" fill="url(#paint35_linear_188_2255)"/>
<path d="M106.197 63.743C109.234 62.3715 112.09 62.4381 114.689 63.9401C117.287 65.442 119.191 67.908 120.293 71.2555C120.921 73.1293 121.188 75.1059 121.077 77.0796C120.963 78.989 120.378 81.415 119.29 84.5015C118.604 86.4349 118.197 87.8197 118.069 88.6159C117.951 89.4234 117.944 90.2434 118.051 91.0526C118.165 91.9581 118.532 93.4094 119.146 95.3668L119.412 96.187L114.747 98.2908L114.465 97.4919C114.229 96.8235 114.053 96.3095 113.934 95.958C113.294 94.1058 112.91 92.1751 112.79 90.2191C112.731 88.8082 112.855 87.3957 113.16 86.0168C113.559 84.3779 114.058 82.7647 114.652 81.186C115.37 79.1621 115.769 77.6335 115.835 76.6455C115.901 75.6912 115.776 74.7334 115.468 73.828C114.984 72.1971 113.921 70.7999 112.479 69.9C111.04 69.0052 109.63 68.888 108.173 69.5431C106.766 70.1769 105.822 71.2794 105.29 72.9119C104.758 74.5444 104.777 76.7973 105.354 79.6042L105.527 80.4324L100.354 81.8358L100.152 80.9756C99.1782 76.784 99.2208 73.1489 100.277 70.1796C100.758 68.7515 101.534 67.4405 102.554 66.3317C103.574 65.2229 104.815 64.341 106.197 63.743Z" fill="url(#paint36_linear_188_2255)"/>
<path d="M40.6782 109.944L72.4814 45.1043L64.008 39.0698L30.9894 106.389L40.6782 109.944Z" fill="url(#paint37_linear_188_2255)"/>
<path style="mix-blend-mode:multiply" opacity="0.4" d="M30.9894 106.389L40.6782 109.944L41.633 108L32.0053 104.323L30.9894 106.389Z" fill="url(#paint38_linear_188_2255)"/>
<path style="mix-blend-mode:multiply" opacity="0.2" d="M64.008 39.0698L72.4814 45.1043L71.6383 46.8246L62.9734 41.179L64.008 39.0698Z" fill="url(#paint39_linear_188_2255)"/>
<path style="mix-blend-mode:multiply" opacity="0.2" d="M64.008 39.0698L30.9894 106.389L32.6915 107.012L65.3591 40.0312L64.008 39.0698Z" fill="url(#paint40_linear_188_2255)"/>
<path d="M64.008 39.0697L29.8059 27.8076L0 86.8636L30.9894 106.389L64.008 39.0697Z" fill="url(#paint41_linear_188_2255)"/>
<path style="mix-blend-mode:multiply" opacity="0.4" d="M0 86.8639L30.9894 106.389L32.4149 103.484L1.17553 84.5337L0 86.8639Z" fill="url(#paint42_linear_188_2255)"/>
<path style="mix-blend-mode:multiply" opacity="0.4" d="M64.008 39.0698L30.9894 106.389L28.4255 104.773L61.7287 38.3188L64.008 39.0698Z" fill="url(#paint43_linear_188_2255)"/>
<path style="mix-blend-mode:screen" opacity="0.8" d="M29.8059 27.8076L0 86.8636L1.88032 88.046L32.0053 28.532L29.8059 27.8076Z" fill="url(#paint44_linear_188_2255)"/>
<path style="mix-blend-mode:screen" opacity="0.8" d="M29.8059 27.8076L64.008 39.0697L62.9734 41.1788L28.9575 29.488L29.8059 27.8076Z" fill="url(#paint45_linear_188_2255)"/>
<path style="mix-blend-mode:multiply" opacity="0.5" d="M25.3644 81.9424L25.8644 82.1155L22.9468 88.2192L22.4468 88.0461L25.3644 81.9424Z" fill="url(#paint46_linear_188_2255)"/>
<path style="mix-blend-mode:multiply" opacity="0.5" d="M20.7952 79.3008L21.2952 79.4739L25.8644 82.1156L25.3644 81.9425L20.7952 79.3008Z" fill="url(#paint47_linear_188_2255)"/>
<path d="M25.3644 81.9425L22.4468 88.0463L17.8777 85.4045L20.7952 79.3008L25.3644 81.9425Z" fill="url(#paint48_linear_188_2255)"/>
<g style="mix-blend-mode:multiply" opacity="0.5">
<path d="M36.5213 50.5987C32.8537 49.3603 30.0452 53.1259 28.3644 55.8928L28.8644 56.0633C30.5452 53.299 33.3564 49.5334 37.0213 50.7691L36.5213 50.5987Z" fill="url(#paint49_linear_188_2255)"/>
<path d="M46.1144 53.1337C45.367 49.9141 43.4841 47.4082 40.5133 45.6772C40.367 45.5919 40.2208 45.5121 40.0771 45.4348L40.0266 45.4082L39.899 45.3443L39.5452 45.1712L39.3936 45.1019L39.2819 45.0487L39.016 44.9395C38.9841 44.9262 38.9521 44.9102 38.9202 44.8996C38.7819 44.8436 38.641 44.7904 38.5 44.7398L38.4202 44.7105L37.9202 44.54C38.0851 44.596 38.2527 44.6599 38.4202 44.7265L38.516 44.7664C38.641 44.817 38.7819 44.8729 38.8936 44.9288L39.0452 44.9981L39.399 45.1738L39.5266 45.2378C39.6888 45.323 39.8511 45.4109 40.0133 45.5041C42.9841 47.2217 44.867 49.7277 45.6144 52.9606C46.3644 56.202 45.9647 59.6036 44.4841 62.5822C43.6893 64.3035 42.5379 65.8359 41.1064 67.0775C39.75 68.2306 37.7234 69.3198 34.9176 70.4036C33.1569 71.0827 31.9548 71.6393 31.3351 72.0494C30.7017 72.4888 30.1439 73.0285 29.6835 73.6472C29.1516 74.337 28.4282 75.6046 27.5293 77.4181L27.1516 78.1771L27.6516 78.3502L28.0293 77.5912C28.9282 75.7777 29.6543 74.5074 30.1835 73.8204C30.6431 73.2009 31.201 72.6611 31.8351 72.2225C32.4548 71.8097 33.6569 71.2558 35.4176 70.5767C38.2234 69.4929 40.25 68.4037 41.6064 67.2506C43.0379 66.0079 44.1892 64.4747 44.9841 62.7527C46.4643 59.7749 46.864 56.3742 46.1144 53.1337Z" fill="url(#paint50_linear_188_2255)"/>
</g>
<path d="M40.0133 45.5173C42.9841 47.235 44.867 49.7409 45.6144 52.9739C46.3612 56.211 45.9616 59.6074 44.4841 62.5822C43.6893 64.3035 42.5379 65.8358 41.1064 67.0774C39.75 68.2305 37.7234 69.3197 34.9176 70.4036C33.1569 71.0827 31.9548 71.6393 31.3351 72.0494C30.7017 72.4888 30.1439 73.0284 29.6835 73.6472C29.1516 74.3369 28.4282 75.6045 27.5293 77.4181L27.1516 78.1771L22.5905 75.5406L22.9362 74.7737C23.2261 74.1372 23.4522 73.6445 23.6091 73.3143C24.3947 71.5871 25.4317 69.9861 26.6862 68.5634C27.5853 67.5997 28.6245 66.7773 29.7686 66.1241C31.1399 65.3939 32.5621 64.7638 34.024 64.2386C35.8644 63.5329 37.1623 62.8725 37.8697 62.2839C38.5707 61.6922 39.1328 60.953 39.516 60.1189C40.2952 58.5207 40.5127 56.7059 40.133 54.9685C39.7607 53.1417 38.8883 51.8501 37.4734 51.0272C36.8482 50.6395 36.137 50.4124 35.403 50.3659C34.6691 50.3195 33.935 50.4551 33.266 50.7609C31.8085 51.3707 30.3139 52.8674 28.8218 55.2029L28.3803 55.8953L23.9362 52.3481L24.3777 51.6131C26.5346 48.0259 29 45.6798 31.7048 44.6385C34.4096 43.5973 37.2048 43.8929 40.0133 45.5173Z" fill="url(#paint51_linear_188_2255)"/>
</g>
<defs>
<linearGradient id="paint0_linear_188_2255" x1="105.705" y1="91.5748" x2="105.705" y2="38.0047" gradientUnits="userSpaceOnUse">
<stop stop-color="#A34F22"/>
<stop offset="1" stop-color="#B25E2E"/>
</linearGradient>
<linearGradient id="paint1_linear_188_2255" x1="63.7766" y1="61.2798" x2="63.7766" y2="3.13467" gradientUnits="userSpaceOnUse">
<stop stop-color="#883E1B"/>
<stop offset="1" stop-color="#B25E2E"/>
</linearGradient>
<linearGradient id="paint2_linear_188_2255" x1="88.8564" y1="30.9872" x2="88.8564" y2="63.4126" gradientUnits="userSpaceOnUse">
<stop stop-color="#FFBF16"/>
<stop offset="1" stop-color="#D17841"/>
</linearGradient>
<linearGradient id="paint3_linear_188_2255" x1="66.125" y1="49.144" x2="89.8809" y2="51.4947" gradientUnits="userSpaceOnUse">
<stop stop-color="#FFBF16"/>
<stop offset="1" stop-color="#D17841"/>
</linearGradient>
<linearGradient id="paint4_linear_188_2255" x1="81.3617" y1="58.3899" x2="81.3617" y2="-23.4858" gradientUnits="userSpaceOnUse">
<stop stop-color="#FFBF16"/>
<stop offset="1" stop-color="#FFDD75"/>
</linearGradient>
<linearGradient id="paint5_linear_188_2255" x1="79.7579" y1="30.8997" x2="79.7579" y2="16.0745" gradientUnits="userSpaceOnUse">
<stop stop-color="#FFBF16"/>
<stop offset="1" stop-color="#D17841"/>
</linearGradient>
<linearGradient id="paint6_linear_188_2255" x1="88.6143" y1="2.37565" x2="88.6143" y2="49.802" gradientUnits="userSpaceOnUse">
<stop stop-color="#FFBF16"/>
<stop offset="1" stop-color="#D17841"/>
</linearGradient>
<linearGradient id="paint7_linear_188_2255" x1="81.0319" y1="58.3904" x2="81.0319" y2="-23.4853" gradientUnits="userSpaceOnUse">
<stop stop-color="#FFBF16"/>
<stop offset="1" stop-color="#FFDD75"/>
</linearGradient>
<linearGradient id="paint8_linear_188_2255" x1="105.96" y1="19.5045" x2="113.176" y2="27.8199" gradientUnits="userSpaceOnUse">
<stop stop-color="#FFBF16"/>
<stop offset="1" stop-color="#D17841"/>
</linearGradient>
<linearGradient id="paint9_linear_188_2255" x1="113.543" y1="28.3832" x2="120.14" y2="23.1508" gradientUnits="userSpaceOnUse">
<stop stop-color="#FFBF16"/>
<stop offset="1" stop-color="#D17841"/>
</linearGradient>
<linearGradient id="paint10_linear_188_2255" x1="105.037" y1="33.2457" x2="111.296" y2="40.1429" gradientUnits="userSpaceOnUse">
<stop stop-color="#FFBF16"/>
<stop offset="1" stop-color="#D17841"/>
</linearGradient>
<linearGradient id="paint11_linear_188_2255" x1="104.431" y1="51.4748" x2="125.462" y2="27.8249" gradientUnits="userSpaceOnUse">
<stop stop-color="#FFBF16"/>
<stop offset="1" stop-color="#D17841"/>
</linearGradient>
<linearGradient id="paint12_linear_188_2255" x1="104.984" y1="45.0406" x2="121.025" y2="19.2225" gradientUnits="userSpaceOnUse">
<stop stop-color="#FFBF16"/>
<stop offset="1" stop-color="#FFDD75"/>
</linearGradient>
<linearGradient id="paint13_linear_188_2255" x1="103.633" y1="50.7633" x2="124.661" y2="27.1134" gradientUnits="userSpaceOnUse">
<stop stop-color="#FFBF16"/>
<stop offset="1" stop-color="#D17841"/>
</linearGradient>
<linearGradient id="paint14_linear_188_2255" x1="103.088" y1="39.5518" x2="107.066" y2="45.3737" gradientUnits="userSpaceOnUse">
<stop stop-color="#FFBF16"/>
<stop offset="1" stop-color="#D17841"/>
</linearGradient>
<linearGradient id="paint15_linear_188_2255" x1="105.263" y1="45.2138" x2="121.304" y2="19.3983" gradientUnits="userSpaceOnUse">
<stop stop-color="#FFBF16"/>
<stop offset="1" stop-color="#FFDD75"/>
</linearGradient>
<linearGradient id="paint16_linear_188_2255" x1="52.7713" y1="34.2149" x2="63.0122" y2="28.2054" gradientUnits="userSpaceOnUse">
<stop stop-color="#FFBF16"/>
<stop offset="1" stop-color="#D17841"/>
</linearGradient>
<linearGradient id="paint17_linear_188_2255" x1="50.649" y1="31.8529" x2="58.7746" y2="33.3059" gradientUnits="userSpaceOnUse">
<stop stop-color="#FFBF16"/>
<stop offset="1" stop-color="#D17841"/>
</linearGradient>
<linearGradient id="paint18_linear_188_2255" x1="66.7792" y1="33.1844" x2="70.1064" y2="33.1844" gradientUnits="userSpaceOnUse">
<stop stop-color="#FFBF16"/>
<stop offset="1" stop-color="#D17841"/>
</linearGradient>
<linearGradient id="paint19_linear_188_2255" x1="69.8138" y1="43.7194" x2="58.5517" y2="22.9866" gradientUnits="userSpaceOnUse">
<stop stop-color="#FFBF16"/>
<stop offset="1" stop-color="#FFDD75"/>
</linearGradient>
<linearGradient id="paint20_linear_188_2255" x1="55.9202" y1="37.1681" x2="66.2145" y2="39.8725" gradientUnits="userSpaceOnUse">
<stop stop-color="#FFBF16"/>
<stop offset="1" stop-color="#D17841"/>
</linearGradient>
<linearGradient id="paint21_linear_188_2255" x1="68.4681" y1="42.8701" x2="70.4601" y2="42.8701" gradientUnits="userSpaceOnUse">
<stop stop-color="#FFBF16"/>
<stop offset="1" stop-color="#D17841"/>
</linearGradient>
<linearGradient id="paint22_linear_188_2255" x1="55.0106" y1="41.4881" x2="65.3049" y2="44.1952" gradientUnits="userSpaceOnUse">
<stop stop-color="#FFBF16"/>
<stop offset="1" stop-color="#D17841"/>
</linearGradient>
<linearGradient id="paint23_linear_188_2255" x1="68.6117" y1="44.7316" x2="57.3496" y2="23.9987" gradientUnits="userSpaceOnUse">
<stop stop-color="#FFBF16"/>
<stop offset="1" stop-color="#FFDD75"/>
</linearGradient>
<linearGradient id="paint24_linear_188_2255" x1="88.8378" y1="107.843" x2="40.5778" y2="47.9888" gradientUnits="userSpaceOnUse">
<stop stop-color="#E57531"/>
<stop offset="1" stop-color="#FF9D66"/>
</linearGradient>
<linearGradient id="paint25_linear_188_2255" x1="62.6543" y1="100.536" x2="63.5045" y2="98.7978" gradientUnits="userSpaceOnUse">
<stop stop-color="#BF5722"/>
<stop offset="0.03" stop-color="#BF5722" stop-opacity="0.88"/>
<stop offset="0.1" stop-color="#BF5722" stop-opacity="0.67"/>
<stop offset="0.17" stop-color="#BF5722" stop-opacity="0.49"/>
<stop offset="0.24" stop-color="#BF5722" stop-opacity="0.34"/>
<stop offset="0.32" stop-color="#BF5722" stop-opacity="0.21"/>
<stop offset="0.42" stop-color="#BF5722" stop-opacity="0.12"/>
<stop offset="0.53" stop-color="#BF5722" stop-opacity="0.05"/>
<stop offset="0.68" stop-color="#BF5722" stop-opacity="0.01"/>
<stop offset="1" stop-color="#BF5722" stop-opacity="0"/>
</linearGradient>
<linearGradient id="paint26_linear_188_2255" x1="82.8458" y1="85.0742" x2="79.875" y2="85.0742" gradientUnits="userSpaceOnUse">
<stop stop-color="#BF5722"/>
<stop offset="0.03" stop-color="#BF5722" stop-opacity="0.88"/>
<stop offset="0.1" stop-color="#BF5722" stop-opacity="0.67"/>
<stop offset="0.17" stop-color="#BF5722" stop-opacity="0.49"/>
<stop offset="0.24" stop-color="#BF5722" stop-opacity="0.34"/>
<stop offset="0.32" stop-color="#BF5722" stop-opacity="0.21"/>
<stop offset="0.42" stop-color="#BF5722" stop-opacity="0.12"/>
<stop offset="0.53" stop-color="#BF5722" stop-opacity="0.05"/>
<stop offset="0.68" stop-color="#BF5722" stop-opacity="0.01"/>
<stop offset="1" stop-color="#BF5722" stop-opacity="0"/>
</linearGradient>
<linearGradient id="paint27_linear_188_2255" x1="80.4043" y1="62.1374" x2="128.704" y2="96.0373" gradientUnits="userSpaceOnUse">
<stop stop-color="#CC6625"/>
<stop offset="1" stop-color="#B24E0E"/>
</linearGradient>
<linearGradient id="paint28_linear_188_2255" x1="83.1995" y1="85.1353" x2="86.2261" y2="85.1353" gradientUnits="userSpaceOnUse">
<stop stop-color="#BF5722"/>
<stop offset="0.03" stop-color="#BF5722" stop-opacity="0.88"/>
<stop offset="0.1" stop-color="#BF5722" stop-opacity="0.67"/>
<stop offset="0.17" stop-color="#BF5722" stop-opacity="0.49"/>
<stop offset="0.24" stop-color="#BF5722" stop-opacity="0.34"/>
<stop offset="0.32" stop-color="#BF5722" stop-opacity="0.21"/>
<stop offset="0.42" stop-color="#BF5722" stop-opacity="0.12"/>
<stop offset="0.53" stop-color="#BF5722" stop-opacity="0.05"/>
<stop offset="0.68" stop-color="#BF5722" stop-opacity="0.01"/>
<stop offset="1" stop-color="#BF5722" stop-opacity="0"/>
</linearGradient>
<linearGradient id="paint29_linear_188_2255" x1="103.729" y1="101.436" x2="103.137" y2="100.073" gradientUnits="userSpaceOnUse">
<stop stop-color="#BF5722"/>
<stop offset="0.03" stop-color="#BF5722" stop-opacity="0.88"/>
<stop offset="0.1" stop-color="#BF5722" stop-opacity="0.67"/>
<stop offset="0.17" stop-color="#BF5722" stop-opacity="0.49"/>
<stop offset="0.24" stop-color="#BF5722" stop-opacity="0.34"/>
<stop offset="0.32" stop-color="#BF5722" stop-opacity="0.21"/>
<stop offset="0.42" stop-color="#BF5722" stop-opacity="0.12"/>
<stop offset="0.53" stop-color="#BF5722" stop-opacity="0.05"/>
<stop offset="0.68" stop-color="#BF5722" stop-opacity="0.01"/>
<stop offset="1" stop-color="#BF5722" stop-opacity="0"/>
</linearGradient>
<linearGradient id="paint30_linear_188_2255" x1="124.84" y1="70.6512" x2="123.582" y2="70.5954" gradientUnits="userSpaceOnUse">
<stop stop-color="#BF5722"/>
<stop offset="0.03" stop-color="#BF5722" stop-opacity="0.88"/>
<stop offset="0.1" stop-color="#BF5722" stop-opacity="0.67"/>
<stop offset="0.17" stop-color="#BF5722" stop-opacity="0.49"/>
<stop offset="0.24" stop-color="#BF5722" stop-opacity="0.34"/>
<stop offset="0.32" stop-color="#BF5722" stop-opacity="0.21"/>
<stop offset="0.42" stop-color="#BF5722" stop-opacity="0.12"/>
<stop offset="0.53" stop-color="#BF5722" stop-opacity="0.05"/>
<stop offset="0.68" stop-color="#BF5722" stop-opacity="0.01"/>
<stop offset="1" stop-color="#BF5722" stop-opacity="0"/>
</linearGradient>
<linearGradient id="paint31_linear_188_2255" x1="117.33" y1="112.512" x2="113.235" y2="100.033" gradientUnits="userSpaceOnUse">
<stop stop-color="#FFBF16"/>
<stop offset="0.05" stop-color="#FBB81A"/>
<stop offset="0.29" stop-color="#E89C2B"/>
<stop offset="0.53" stop-color="#DB8837"/>
<stop offset="0.76" stop-color="#D47C3F"/>
<stop offset="1" stop-color="#D17841"/>
</linearGradient>
<linearGradient id="paint32_linear_188_2255" x1="124.926" y1="96.8236" x2="115.462" y2="102.158" gradientUnits="userSpaceOnUse">
<stop stop-color="#FFBF16"/>
<stop offset="1" stop-color="#D17841"/>
</linearGradient>
<linearGradient id="paint33_linear_188_2255" x1="120.747" y1="108.091" x2="103.873" y2="60.6865" gradientUnits="userSpaceOnUse">
<stop stop-color="#FFBF16"/>
<stop offset="1" stop-color="#FFDD75"/>
</linearGradient>
<linearGradient id="paint34_linear_188_2255" x1="121.476" y1="108.615" x2="104.349" y2="63.1131" gradientUnits="userSpaceOnUse">
<stop stop-color="#FFBF16"/>
<stop offset="1" stop-color="#D17841"/>
</linearGradient>
<linearGradient id="paint35_linear_188_2255" x1="99.4069" y1="64.3687" x2="105.799" y2="81.2922" gradientUnits="userSpaceOnUse">
<stop stop-color="#FFBF16"/>
<stop offset="1" stop-color="#D17841"/>
</linearGradient>
<linearGradient id="paint36_linear_188_2255" x1="121.439" y1="107.846" x2="104.565" y2="60.4414" gradientUnits="userSpaceOnUse">
<stop stop-color="#FFBF16"/>
<stop offset="1" stop-color="#FFDD75"/>
</linearGradient>
<linearGradient id="paint37_linear_188_2255" x1="27.5213" y1="105.375" x2="74.4068" y2="47.2281" gradientUnits="userSpaceOnUse">
<stop stop-color="#CC6625"/>
<stop offset="1" stop-color="#B24E0E"/>
</linearGradient>
<linearGradient id="paint38_linear_188_2255" x1="35.9841" y1="108.054" x2="36.7331" y2="106.1" gradientUnits="userSpaceOnUse">
<stop stop-color="#BF5722"/>
<stop offset="0.03" stop-color="#BF5722" stop-opacity="0.88"/>
<stop offset="0.1" stop-color="#BF5722" stop-opacity="0.67"/>
<stop offset="0.17" stop-color="#BF5722" stop-opacity="0.49"/>
<stop offset="0.24" stop-color="#BF5722" stop-opacity="0.34"/>
<stop offset="0.32" stop-color="#BF5722" stop-opacity="0.21"/>
<stop offset="0.42" stop-color="#BF5722" stop-opacity="0.12"/>
<stop offset="0.53" stop-color="#BF5722" stop-opacity="0.05"/>
<stop offset="0.68" stop-color="#BF5722" stop-opacity="0.01"/>
<stop offset="1" stop-color="#BF5722" stop-opacity="0"/>
</linearGradient>
<linearGradient id="paint39_linear_188_2255" x1="68.2792" y1="42.2921" x2="67.2988" y2="43.6943" gradientUnits="userSpaceOnUse">
<stop stop-color="#BF5722"/>
<stop offset="0.03" stop-color="#BF5722" stop-opacity="0.88"/>
<stop offset="0.1" stop-color="#BF5722" stop-opacity="0.67"/>
<stop offset="0.17" stop-color="#BF5722" stop-opacity="0.49"/>
<stop offset="0.24" stop-color="#BF5722" stop-opacity="0.34"/>
<stop offset="0.32" stop-color="#BF5722" stop-opacity="0.21"/>
<stop offset="0.42" stop-color="#BF5722" stop-opacity="0.12"/>
<stop offset="0.53" stop-color="#BF5722" stop-opacity="0.05"/>
<stop offset="0.68" stop-color="#BF5722" stop-opacity="0.01"/>
<stop offset="1" stop-color="#BF5722" stop-opacity="0"/>
</linearGradient>
<linearGradient id="paint40_linear_188_2255" x1="47.5665" y1="72.7602" x2="49.0806" y2="73.5042" gradientUnits="userSpaceOnUse">
<stop stop-color="#BF5722"/>
<stop offset="0.03" stop-color="#BF5722" stop-opacity="0.88"/>
<stop offset="0.1" stop-color="#BF5722" stop-opacity="0.67"/>
<stop offset="0.17" stop-color="#BF5722" stop-opacity="0.49"/>
<stop offset="0.24" stop-color="#BF5722" stop-opacity="0.34"/>
<stop offset="0.32" stop-color="#BF5722" stop-opacity="0.21"/>
<stop offset="0.42" stop-color="#BF5722" stop-opacity="0.12"/>
<stop offset="0.53" stop-color="#BF5722" stop-opacity="0.05"/>
<stop offset="0.68" stop-color="#BF5722" stop-opacity="0.01"/>
<stop offset="1" stop-color="#BF5722" stop-opacity="0"/>
</linearGradient>
<linearGradient id="paint41_linear_188_2255" x1="61.5186" y1="80.4003" x2="11.736" y2="53.2281" gradientUnits="userSpaceOnUse">
<stop stop-color="#E57531"/>
<stop offset="1" stop-color="#FF9D66"/>
</linearGradient>
<linearGradient id="paint42_linear_188_2255" x1="15.5771" y1="96.2698" x2="16.9121" y2="94.1382" gradientUnits="userSpaceOnUse">
<stop stop-color="#BF5722"/>
<stop offset="0.03" stop-color="#BF5722" stop-opacity="0.88"/>
<stop offset="0.1" stop-color="#BF5722" stop-opacity="0.67"/>
<stop offset="0.17" stop-color="#BF5722" stop-opacity="0.49"/>
<stop offset="0.24" stop-color="#BF5722" stop-opacity="0.34"/>
<stop offset="0.32" stop-color="#BF5722" stop-opacity="0.21"/>
<stop offset="0.42" stop-color="#BF5722" stop-opacity="0.12"/>
<stop offset="0.53" stop-color="#BF5722" stop-opacity="0.05"/>
<stop offset="0.68" stop-color="#BF5722" stop-opacity="0.01"/>
<stop offset="1" stop-color="#BF5722" stop-opacity="0"/>
</linearGradient>
<linearGradient id="paint43_linear_188_2255" x1="47.2846" y1="72.6217" x2="44.9988" y2="71.4869" gradientUnits="userSpaceOnUse">
<stop stop-color="#BF5722"/>
<stop offset="0.03" stop-color="#BF5722" stop-opacity="0.88"/>
<stop offset="0.1" stop-color="#BF5722" stop-opacity="0.67"/>
<stop offset="0.17" stop-color="#BF5722" stop-opacity="0.49"/>
<stop offset="0.24" stop-color="#BF5722" stop-opacity="0.34"/>
<stop offset="0.32" stop-color="#BF5722" stop-opacity="0.21"/>
<stop offset="0.42" stop-color="#BF5722" stop-opacity="0.12"/>
<stop offset="0.53" stop-color="#BF5722" stop-opacity="0.05"/>
<stop offset="0.68" stop-color="#BF5722" stop-opacity="0.01"/>
<stop offset="1" stop-color="#BF5722" stop-opacity="0"/>
</linearGradient>
<linearGradient id="paint44_linear_188_2255" x1="17.1596" y1="58.3981" x2="15.0627" y2="57.3564" gradientUnits="userSpaceOnUse">
<stop stop-color="#BF5722" stop-opacity="0"/>
<stop offset="0.32" stop-color="#BF5722" stop-opacity="0.01"/>
<stop offset="0.47" stop-color="#BF5722" stop-opacity="0.05"/>
<stop offset="0.58" stop-color="#BF5722" stop-opacity="0.12"/>
<stop offset="0.68" stop-color="#BF5722" stop-opacity="0.21"/>
<stop offset="0.76" stop-color="#BF5722" stop-opacity="0.34"/>
<stop offset="0.83" stop-color="#BF5722" stop-opacity="0.49"/>
<stop offset="0.9" stop-color="#BF5722" stop-opacity="0.67"/>
<stop offset="0.97" stop-color="#BF5722" stop-opacity="0.88"/>
<stop offset="1" stop-color="#BF5722"/>
</linearGradient>
<linearGradient id="paint45_linear_188_2255" x1="46.7181" y1="33.5785" x2="46.2169" y2="35.0747" gradientUnits="userSpaceOnUse">
<stop stop-color="#BF5722"/>
<stop offset="0.03" stop-color="#BF5722" stop-opacity="0.88"/>
<stop offset="0.1" stop-color="#BF5722" stop-opacity="0.67"/>
<stop offset="0.17" stop-color="#BF5722" stop-opacity="0.49"/>
<stop offset="0.24" stop-color="#BF5722" stop-opacity="0.34"/>
<stop offset="0.32" stop-color="#BF5722" stop-opacity="0.21"/>
<stop offset="0.42" stop-color="#BF5722" stop-opacity="0.12"/>
<stop offset="0.53" stop-color="#BF5722" stop-opacity="0.05"/>
<stop offset="0.68" stop-color="#BF5722" stop-opacity="0.01"/>
<stop offset="1" stop-color="#BF5722" stop-opacity="0"/>
</linearGradient>
<linearGradient id="paint46_linear_188_2255" x1="17.6064" y1="100.03" x2="37.7063" y2="54.2713" gradientUnits="userSpaceOnUse">
<stop stop-color="#FFBF16"/>
<stop offset="0.05" stop-color="#FBB81A"/>
<stop offset="0.29" stop-color="#E89C2B"/>
<stop offset="0.53" stop-color="#DB8837"/>
<stop offset="0.76" stop-color="#D47C3F"/>
<stop offset="1" stop-color="#D17841"/>
</linearGradient>
<linearGradient id="paint47_linear_188_2255" x1="20.7952" y1="80.7095" x2="25.8644" y2="80.7095" gradientUnits="userSpaceOnUse">
<stop stop-color="#FFBF16"/>
<stop offset="0.05" stop-color="#FBB81A"/>
<stop offset="0.29" stop-color="#E89C2B"/>
<stop offset="0.53" stop-color="#DB8837"/>
<stop offset="0.76" stop-color="#D47C3F"/>
<stop offset="1" stop-color="#D17841"/>
</linearGradient>
<linearGradient id="paint48_linear_188_2255" x1="19.7314" y1="87.5802" x2="40.9918" y2="43.7681" gradientUnits="userSpaceOnUse">
<stop stop-color="#FFBF16"/>
<stop offset="1" stop-color="#FFDD75"/>
</linearGradient>
<linearGradient id="paint49_linear_188_2255" x1="40.9468" y1="42.4337" x2="28.4902" y2="58.6333" gradientUnits="userSpaceOnUse">
<stop stop-color="#FFBF16"/>
<stop offset="0.05" stop-color="#FBB81A"/>
<stop offset="0.29" stop-color="#E89C2B"/>
<stop offset="0.53" stop-color="#DB8837"/>
<stop offset="0.76" stop-color="#D47C3F"/>
<stop offset="1" stop-color="#D17841"/>
</linearGradient>
<linearGradient id="paint50_linear_188_2255" x1="20.5665" y1="101.332" x2="40.6691" y2="55.5738" gradientUnits="userSpaceOnUse">
<stop stop-color="#FFBF16"/>
<stop offset="0.05" stop-color="#FBB81A"/>
<stop offset="0.29" stop-color="#E89C2B"/>
<stop offset="0.53" stop-color="#DB8837"/>
<stop offset="0.76" stop-color="#D47C3F"/>
<stop offset="1" stop-color="#D17841"/>
</linearGradient>
<linearGradient id="paint51_linear_188_2255" x1="19.6516" y1="87.5404" x2="40.9121" y2="43.731" gradientUnits="userSpaceOnUse">
<stop stop-color="#FFBF16"/>
<stop offset="1" stop-color="#FFDD75"/>
</linearGradient>
<clipPath id="clip0_188_2255">
<rect width="141" height="120" fill="white"/>
</clipPath>
</defs>
</svg>
