<svg width="212" height="108" viewBox="0 0 212 108" fill="none" xmlns="http://www.w3.org/2000/svg">
<g clip-path="url(#clip0_188_2323)">
<path d="M118.738 108H118.193C103.73 107.957 91.1586 106.275 80.8282 103C77.8327 102.05 75.6984 100.773 74.4765 99.2038C73.2547 97.6346 72.9422 95.8265 73.5221 93.8051C74.5006 90.3989 78.1171 86.4614 83.9815 82.418C84.7188 81.9096 85.4831 81.4047 86.2743 80.9031C80.4022 80.9848 74.5286 80.9708 68.7622 80.858C52.7758 80.5468 38.2786 79.5159 25.6733 77.7965C17.3497 76.6614 10.9833 75.0656 6.75976 73.0505C2.73985 71.1389 0.489721 68.7698 0.0707853 66.0102C-0.350482 63.2303 1.10685 60.0972 4.40238 56.6895C7.08154 53.922 11.0634 50.8799 16.2359 47.648C25.5388 41.8362 36.7638 36.5884 43.473 33.4553C44.8254 32.8228 45.9944 32.2766 46.9356 31.8214C48.8103 30.922 49.3948 30.1946 49.3264 29.8453C49.2487 29.4321 48.0579 27.2715 32.6584 25.2938C24.4102 24.2349 16.1668 23.758 16.0836 23.7533L16.1722 22.1973C16.2554 22.2019 24.547 22.6812 32.8488 23.7471C37.7454 24.3757 41.6892 25.083 44.5782 25.8478C48.6245 26.9214 50.563 28.0597 50.8514 29.5395C51.2338 31.4807 48.5049 32.7901 47.6079 33.2211C46.6589 33.6762 45.4876 34.224 44.1305 34.855C37.4548 37.9756 26.2818 43.1993 17.059 48.9613C11.993 52.1333 8.11061 55.0953 5.5185 57.7725C2.57896 60.8068 1.26308 63.5026 1.60818 65.7768C1.94472 67.9942 3.90261 69.9696 7.42664 71.647C11.508 73.592 17.7174 75.1403 25.8823 76.2537C38.4286 77.9653 52.866 78.9908 68.7917 79.302C75.41 79.4304 82.1705 79.4304 88.9076 79.302C93.5229 76.6147 98.8564 74.0744 104.615 71.8329C112.906 68.6026 121.438 66.2553 129.291 65.0447C138.162 63.6761 145.758 63.7843 151.87 65.3652C154.465 66.0374 156.411 66.7478 157.653 67.4783C159.102 68.3279 159.724 69.2896 159.522 70.3337C159.243 71.752 157.432 73.9064 144.973 76.2288C136.455 77.8167 124.949 79.0989 111.697 79.9368C104.435 80.3967 96.9102 80.7032 89.3546 80.851C87.7511 81.7917 86.2456 82.7455 84.8629 83.6986C79.2978 87.535 75.8927 91.1785 75.0159 94.2338C74.5737 95.772 74.7991 97.0845 75.7022 98.2477C76.7251 99.5633 78.6076 100.66 81.2984 101.515C91.4803 104.743 103.893 106.401 118.198 106.443H118.742C130.934 106.443 144.431 105.237 157.82 102.951C169.873 100.892 181.736 97.959 191.226 94.6913C200.392 91.5349 206.834 88.2718 209.368 85.5021C210.307 84.4743 210.634 83.5928 210.337 82.8809C210.048 82.1853 209.015 81.1692 205.763 80.3002C202.763 79.4949 198.457 78.9775 192.96 78.7597L193.021 77.2036C204.403 77.6541 210.536 79.3152 211.772 82.281C212.322 83.6037 211.898 85.0383 210.514 86.5516C207.809 89.5081 201.139 92.9229 191.732 96.1618C182.165 99.4559 170.215 102.412 158.082 104.487C144.604 106.786 131.015 108 118.738 108ZM140.789 65.6476C137.326 65.6476 133.572 65.9588 129.527 66.5813C121.785 67.7755 113.365 70.0925 105.179 73.2824C100.748 75.0003 96.4259 76.9866 92.2366 79.2304C98.788 79.0662 105.294 78.783 111.599 78.3839C124.789 77.5499 136.231 76.2755 144.688 74.6992C156.931 72.4172 157.922 70.4123 157.996 70.031C158.057 69.7198 157.634 69.2693 156.865 68.8165C155.748 68.1599 153.937 67.504 151.481 66.8715C148.329 66.0545 144.754 65.6476 140.789 65.6476Z" fill="#FFCB62"/>
<path d="M79 56C78.1667 54.6667 74.6 52.4 67 54C57.5 56 46.2111 62.5 39 62.5C32 62.5 29.6667 69.5 27 70C17.1667 78.1667 3.00001 94.7 25 95.5C47 96.3 57.1667 105.833 59.5 110.5" stroke="#FFCB62" stroke-width="1.5"/>
<path d="M192.963 44.4307C191.12 44.4307 189.295 44.794 187.592 45.5C185.89 46.206 184.343 47.2408 183.039 48.5452C181.736 49.8497 180.702 51.3984 179.997 53.1027C179.292 54.8071 178.929 56.6339 178.929 58.4787C178.929 64.5947 187.65 74.3014 191.343 78.1363C191.553 78.3538 191.805 78.5268 192.083 78.6449C192.362 78.763 192.661 78.8239 192.963 78.8239C193.266 78.8239 193.565 78.763 193.843 78.6449C194.122 78.5268 194.373 78.3538 194.583 78.1363C198.275 74.3014 206.997 64.5986 206.997 58.4787C206.997 56.6339 206.634 54.8071 205.929 53.1027C205.223 51.3984 204.19 49.8497 202.886 48.5452C201.583 47.2408 200.036 46.206 198.333 45.5C196.631 44.794 194.806 44.4307 192.963 44.4307ZM192.963 63.9132C191.889 63.9133 190.839 63.5947 189.946 62.9977C189.054 62.4006 188.358 61.5519 187.947 60.5589C187.536 59.5659 187.428 58.4732 187.637 57.4189C187.847 56.3647 188.364 55.3963 189.123 54.6362C189.882 53.8761 190.85 53.3584 191.903 53.1487C192.956 52.9389 194.047 53.0465 195.04 53.4578C196.032 53.8691 196.88 54.5656 197.476 55.4594C198.073 56.3531 198.391 57.4038 198.391 58.4787C198.391 59.1923 198.251 59.899 197.978 60.5583C197.705 61.2177 197.306 61.8168 196.802 62.3214C196.297 62.8261 195.699 63.2264 195.04 63.4995C194.382 63.7726 193.676 63.9132 192.963 63.9132Z" fill="#E93323"/>
<path d="M79 44C78.3434 44 77.6932 44.1268 77.0866 44.3731C76.48 44.6194 75.9288 44.9805 75.4645 45.4356C75.0002 45.8907 74.6319 46.4311 74.3806 47.0257C74.1293 47.6204 74 48.2578 74 48.9014C74 51.0354 77.1073 54.4221 78.4229 55.7601C78.4978 55.836 78.5875 55.8963 78.6866 55.9375C78.7858 55.9788 78.8924 56 79.0001 56C79.1079 56 79.2145 55.9788 79.3136 55.9375C79.4128 55.8963 79.5025 55.836 79.5774 55.7601C80.8927 54.4221 84 51.0367 84 48.9014C84 48.2578 83.8707 47.6204 83.6194 47.0257C83.3681 46.4311 82.9998 45.8907 82.5355 45.4356C82.0712 44.9805 81.52 44.6194 80.9134 44.3731C80.3068 44.1268 79.6566 44 79 44ZM79 50.7976C78.6174 50.7976 78.2434 50.6865 77.9253 50.4781C77.6072 50.2698 77.3592 49.9737 77.2128 49.6272C77.0663 49.2808 77.028 48.8995 77.1026 48.5317C77.1772 48.1639 77.3614 47.826 77.6319 47.5608C77.9024 47.2956 78.247 47.1149 78.6223 47.0418C78.9975 46.9686 79.3864 47.0061 79.7399 47.1496C80.0933 47.2931 80.3954 47.5361 80.608 47.848C80.8205 48.1598 80.934 48.5264 80.934 48.9014C80.934 49.1504 80.884 49.397 80.7868 49.627C80.6897 49.8571 80.5472 50.0661 80.3676 50.2422C80.188 50.4183 79.9748 50.5579 79.7402 50.6532C79.5055 50.7485 79.254 50.7976 79 50.7976Z" fill="#E93323"/>
<path d="M27 58C26.3434 58 25.6932 58.1268 25.0866 58.3731C24.48 58.6194 23.9288 58.9805 23.4645 59.4356C23.0002 59.8907 22.6319 60.4311 22.3806 61.0257C22.1293 61.6204 22 62.2578 22 62.9014C22 65.0354 25.1073 68.4221 26.4229 69.7601C26.4978 69.836 26.5875 69.8963 26.6866 69.9375C26.7858 69.9788 26.8924 70 27.0001 70C27.1079 70 27.2145 69.9788 27.3136 69.9375C27.4128 69.8963 27.5025 69.836 27.5774 69.7601C28.8927 68.4221 32 65.0367 32 62.9014C32 62.2578 31.8707 61.6204 31.6194 61.0257C31.3681 60.4311 30.9998 59.8907 30.5355 59.4356C30.0712 58.9805 29.52 58.6194 28.9134 58.3731C28.3068 58.1268 27.6566 58 27 58ZM27 64.7976C26.6174 64.7976 26.2434 64.6865 25.9253 64.4781C25.6072 64.2698 25.3592 63.9737 25.2128 63.6272C25.0663 63.2808 25.028 62.8995 25.1026 62.5317C25.1772 62.1639 25.3614 61.826 25.6319 61.5608C25.9024 61.2956 26.247 61.1149 26.6223 61.0418C26.9975 60.9686 27.3864 61.0061 27.7399 61.1496C28.0933 61.2931 28.3954 61.5361 28.608 61.848C28.8205 62.1598 28.934 62.5264 28.934 62.9014C28.934 63.1504 28.884 63.397 28.7868 63.627C28.6897 63.8571 28.5472 64.0661 28.3676 64.2422C28.188 64.4183 27.9748 64.5579 27.7402 64.6532C27.5055 64.7485 27.254 64.7976 27 64.7976Z" fill="#E93323"/>
<path d="M58 96C57.3434 96 56.6932 96.1268 56.0866 96.3731C55.48 96.6194 54.9288 96.9805 54.4645 97.4356C54.0002 97.8907 53.6319 98.4311 53.3806 99.0257C53.1293 99.6204 53 100.258 53 100.901C53 103.035 56.1073 106.422 57.4229 107.76C57.4978 107.836 57.5875 107.896 57.6866 107.938C57.7858 107.979 57.8924 108 58.0001 108C58.1079 108 58.2145 107.979 58.3136 107.938C58.4128 107.896 58.5025 107.836 58.5774 107.76C59.8927 106.422 63 103.037 63 100.901C63 100.258 62.8707 99.6204 62.6194 99.0257C62.3681 98.4311 61.9998 97.8907 61.5355 97.4356C61.0712 96.9805 60.52 96.6194 59.9134 96.3731C59.3068 96.1268 58.6566 96 58 96ZM58 102.798C57.6174 102.798 57.2434 102.686 56.9253 102.478C56.6072 102.27 56.3592 101.974 56.2128 101.627C56.0663 101.281 56.028 100.9 56.1026 100.532C56.1772 100.164 56.3614 99.826 56.6319 99.5608C56.9024 99.2956 57.247 99.1149 57.6223 99.0418C57.9975 98.9686 58.3864 99.0061 58.7399 99.1496C59.0933 99.2931 59.3954 99.5361 59.608 99.848C59.8205 100.16 59.934 100.526 59.934 100.901C59.934 101.15 59.884 101.397 59.7868 101.627C59.6897 101.857 59.5472 102.066 59.3676 102.242C59.188 102.418 58.9748 102.558 58.7402 102.653C58.5055 102.749 58.254 102.798 58 102.798Z" fill="#E93323"/>
<path d="M123 66C122.343 66 121.693 66.1268 121.087 66.3731C120.48 66.6194 119.929 66.9805 119.464 67.4356C119 67.8907 118.632 68.4311 118.381 69.0257C118.129 69.6204 118 70.2578 118 70.9014C118 73.0354 121.107 76.4221 122.423 77.7601C122.498 77.836 122.587 77.8963 122.687 77.9375C122.786 77.9788 122.892 78 123 78C123.108 78 123.214 77.9788 123.314 77.9375C123.413 77.8963 123.502 77.836 123.577 77.7601C124.893 76.4221 128 73.0367 128 70.9014C128 70.2578 127.871 69.6204 127.619 69.0257C127.368 68.4311 127 67.8907 126.536 67.4356C126.071 66.9805 125.52 66.6194 124.913 66.3731C124.307 66.1268 123.657 66 123 66ZM123 72.7976C122.617 72.7976 122.243 72.6865 121.925 72.4781C121.607 72.2698 121.359 71.9737 121.213 71.6272C121.066 71.2808 121.028 70.8995 121.103 70.5317C121.177 70.1639 121.361 69.826 121.632 69.5608C121.902 69.2956 122.247 69.1149 122.622 69.0418C122.997 68.9686 123.386 69.0061 123.74 69.1496C124.093 69.2931 124.395 69.5361 124.608 69.848C124.821 70.1598 124.934 70.5264 124.934 70.9014C124.934 71.1504 124.884 71.397 124.787 71.627C124.69 71.8571 124.547 72.0661 124.368 72.2422C124.188 72.4183 123.975 72.5579 123.74 72.6532C123.506 72.7485 123.254 72.7976 123 72.7976Z" fill="#E93323"/>
<path d="M16.1279 3.13395e-08C13.5689 3.13395e-08 11.1147 1.01758 9.30517 2.82888C7.49569 4.64018 6.47913 7.09684 6.47913 9.6584C6.47913 13.9515 12.729 20.8176 15.1687 23.3338C15.2933 23.4624 15.4424 23.5647 15.6072 23.6346C15.7721 23.7045 15.9492 23.7405 16.1282 23.7405C16.3072 23.7405 16.4844 23.7045 16.6492 23.6346C16.8141 23.5647 16.9632 23.4624 17.0878 23.3338C19.5275 20.8176 25.7774 13.9515 25.7774 9.6584C25.7774 8.38998 25.5278 7.13398 25.0428 5.96211C24.5579 4.79025 23.8471 3.72548 22.951 2.82861C22.055 1.93173 20.9912 1.22031 19.8205 0.734979C18.6498 0.249644 17.395 -0.000102146 16.1279 3.13395e-08ZM16.1279 13.3945C15.39 13.3945 14.6687 13.1755 14.0551 12.7651C13.4416 12.3547 12.9634 11.7715 12.6811 11.0891C12.3987 10.4067 12.3248 9.65582 12.4688 8.93139C12.6127 8.20696 12.968 7.54154 13.4898 7.01925C14.0116 6.49697 14.6763 6.14129 15.4 5.9972C16.1237 5.8531 16.8739 5.92706 17.5556 6.20971C18.2373 6.49237 18.8199 6.97103 19.2299 7.58517C19.6398 8.19931 19.8586 8.92134 19.8586 9.65996C19.8586 10.6504 19.4656 11.6003 18.7659 12.3007C18.0663 13.001 17.1173 13.3945 16.1279 13.3945Z" fill="#E93323"/>
</g>
<defs>
<clipPath id="clip0_188_2323">
<rect width="212" height="108" fill="white"/>
</clipPath>
</defs>
</svg>
