<svg width="70" height="70" viewBox="0 0 70 70" fill="none" xmlns="http://www.w3.org/2000/svg">
<path d="M5.25008 5.89265V20.1877C5.25008 21.5817 4.12108 22.7107 2.72808 22.7107C1.33408 22.7107 0.205078 21.5817 0.205078 20.1877V3.37066C0.205078 1.97665 1.33408 0.847656 2.72808 0.847656H19.5451C20.9391 0.847656 22.0681 1.97665 22.0681 3.37066C22.0681 4.76365 20.9391 5.89265 19.5451 5.89265H5.25008ZM60.7501 5.89265H46.4541C45.0621 5.89265 43.9321 4.76365 43.9321 3.37066C43.9321 1.97665 45.0621 0.847656 46.4541 0.847656H63.2721C64.6661 0.847656 65.7951 1.97665 65.7951 3.37066V20.1877C65.7951 21.5817 64.6661 22.7107 63.2721 22.7107C61.8791 22.7107 60.7501 21.5817 60.7501 20.1877V5.89265ZM5.25008 61.3927H19.5451C20.9391 61.3927 22.0681 62.5217 22.0681 63.9147C22.0681 65.3087 20.9391 66.4377 19.5451 66.4377H2.72808C1.33408 66.4377 0.205078 65.3087 0.205078 63.9147V47.0967C0.205078 45.7047 1.33408 44.5747 2.72808 44.5747C4.12108 44.5747 5.25008 45.7047 5.25008 47.0967V61.3927Z" fill="#515EF9"/>
<path d="M50.069 32.3926C40.228 32.3926 32.25 40.3706 32.25 50.2116C32.25 60.0526 40.228 68.0306 50.069 68.0306C59.91 68.0306 67.888 60.0526 67.888 50.2116C67.888 40.3706 59.91 32.3926 50.069 32.3926Z" stroke="#515EF9" stroke-width="3"/>
<path d="M41.875 49.2676L47.5 55.2676L58.625 44.3926" stroke="#515EF9" stroke-width="4" stroke-linecap="round" stroke-linejoin="round"/>
<path d="M13.5 20.1426H49.125" stroke="#515EF9" stroke-width="3.87298" stroke-linecap="round"/>
<path d="M13.25 33.8926L34.85 33.6426" stroke="#515EF9" stroke-width="4.38178" stroke-linecap="round"/>
<path d="M13.5 47.6426L24.75 47.3926" stroke="#515EF9" stroke-width="4" stroke-linecap="round"/>
</svg>
